<svg id="cube-points" enable-background="new 0 0 300 300" height="512" viewBox="0 0 300 300" width="512" xmlns="http://www.w3.org/2000/svg" xmlns:xlink="http://www.w3.org/1999/xlink"><linearGradient id="SVGID_1_" gradientUnits="userSpaceOnUse" x1="55.258" x2="237.089" y1="235.263" y2="53.432"><stop offset="0" stop-color="#107eff"/><stop offset="1" stop-color="#8f16ff"/></linearGradient><g><path d="m74 56c6.617 0 12-5.383 12-12s-5.383-12-12-12-12 5.383-12 12 5.383 12 12 12zm0-16c2.205 0 4 1.795 4 4s-1.795 4-4 4-4-1.795-4-4 1.795-4 4-4zm127.516 22.828 2.828-2.828-2.828-2.828c-1.562-1.562-1.562-4.094 0-5.656s4.094-1.562 5.656 0l2.828 2.828 2.828-2.828c1.562-1.562 4.094-1.562 5.656 0s1.562 4.094 0 5.656l-2.828 2.828 2.828 2.828c1.562 1.562 1.562 4.094 0 5.656-.781.781-1.805 1.172-2.828 1.172s-2.047-.391-2.828-1.172l-2.828-2.828-2.828 2.828c-.781.781-1.805 1.172-2.828 1.172s-2.047-.391-2.828-1.172c-1.563-1.562-1.563-4.093 0-5.656zm44.484 9.172c0-2.209 1.791-4 4-4s4 1.791 4 4-1.791 4-4 4-4-1.791-4-4zm-2.223 20h-19.555c-4.284 0-7.948 2.655-9.466 6.402l-44.756-19.18v-13c0-5.636-4.586-10.222-10.223-10.222h-19.555c-5.636 0-10.222 4.586-10.222 10.223v12.998l-44.757 19.181c-1.517-3.746-5.181-6.402-9.466-6.402h-19.554c-5.637 0-10.223 4.586-10.223 10.223v19.555c0 5.636 4.586 10.222 10.223 10.222h5.777v60h-5.777c-5.637 0-10.223 4.586-10.223 10.223v19.555c0 5.636 4.586 10.222 10.223 10.222h19.555c4.284 0 7.948-2.656 9.466-6.402l44.756 19.181v12.998c0 5.637 4.586 10.223 10.223 10.223h19.555c5.637 0 10.223-4.586 10.223-10.223v-12.999l44.756-19.181c1.518 3.747 5.182 6.403 9.466 6.403h19.555c5.637 0 10.223-4.586 10.223-10.223v-19.555c0-5.637-4.586-10.223-10.223-10.223h-5.778v-60h5.777c5.637 0 10.223-4.586 10.223-10.223v-19.555c0-5.635-4.586-10.221-10.223-10.221zm-73.791 42.083c-.077-5.571-4.619-10.083-10.208-10.083h-19.555c-5.589 0-10.131 4.512-10.208 10.083l-44.015-18.864v-8.439l44.208-18.946c.955 4.655 5.082 8.166 10.015 8.166h19.555c4.932 0 9.06-3.511 10.015-8.166l44.207 18.944v8.443zm-29.763 93.917c-4.932 0-9.06 3.511-10.015 8.166l-44.208-18.947v-14.997c0-5.636-4.586-10.222-10.223-10.222h-5.777v-60h5.777c4.933 0 9.061-3.512 10.015-8.167l44.208 18.946v10.998c0 5.637 4.586 10.223 10.223 10.223h5.777v64zm-2.223-161.777c0-1.225.998-2.223 2.223-2.223h19.555c1.227 0 2.223.998 2.223 2.223v19.555c0 1.225-.996 2.223-2.223 2.223h-19.555c-1.225 0-2.223-.998-2.223-2.223zm-84 55.554v-19.555c0-1.225.998-2.223 2.223-2.223h19.555c1.225 0 2.223.998 2.223 2.223v19.555c0 1.225-.998 2.223-2.223 2.223h-19.555c-1.225 0-2.223-.998-2.223-2.223zm24 100c0 1.225-.998 2.223-2.223 2.223h-19.554c-1.225 0-2.223-.998-2.223-2.223v-19.555c0-1.225.998-2.223 2.223-2.223h19.555c1.225 0 2.223.998 2.223 2.223v19.555zm168-19.554v19.555c0 1.225-.996 2.223-2.223 2.223h-19.555c-1.227 0-2.223-.998-2.223-2.223v-19.555c0-1.225.996-2.223 2.223-2.223h19.555c1.227 0 2.223.998 2.223 2.223zm-16-10.223h-5.777c-5.637 0-10.223 4.586-10.223 10.223v14.998l-44.208 18.946c-.954-4.655-5.082-8.167-10.015-8.167h-5.777v-64h5.777c5.637 0 10.223-4.586 10.223-10.223v-10.999l44.208-18.945c.954 4.655 5.082 8.167 10.015 8.167h5.777z" fill="url(#SVGID_1_)"/></g></svg>