<?xml version="1.0" ?><!DOCTYPE svg  PUBLIC '-//W3C//DTD SVG 1.1//EN'  'http://www.w3.org/Graphics/SVG/1.1/DTD/svg11.dtd'><svg id="Lager_1" style="enable-background:new 0 0 100 100;" version="1.1" viewBox="0 0 100 100" xml:space="preserve" xmlns="http://www.w3.org/2000/svg" xmlns:xlink="http://www.w3.org/1999/xlink"><g><path d="M80.3,82c-0.3,0-0.6,0-0.9-0.1l-16.7-4.5l-0.3,0.1c-4,1.6-8.2,2.4-12.5,2.4c-4.3,0-8.5-0.8-12.5-2.4   l-0.3-0.1l-16.7,4.5C20.3,82,20,82,19.7,82l0,0c-1,0-1.9-0.5-2.5-1.3c-0.6-0.8-0.8-1.8-0.5-2.8l4.3-16l-0.2-0.3   c-1.8-4-2.8-8.2-2.8-12.6c0-17.1,14.4-31,32-31c17.6,0,32,13.9,32,31c0,4.4-0.9,8.6-2.8,12.6l-0.2,0.3l4.3,16c0.3,1,0.1,2-0.5,2.8   C82.2,81.5,81.3,82,80.3,82z M50,41.2c-6.1,0-11,4.8-11,10.8c0,5.9,4.9,10.8,11,10.8S61,57.9,61,52C61,46.1,56.1,41.2,50,41.2z" style="fill:#8989E5;"/><path d="M50,19c17.1,0,31,13.5,31,30c0,4.2-0.9,8.3-2.7,12.2L78,61.8l0.2,0.7l4.2,15.7   c0.2,0.9-0.1,1.6-0.4,1.9C81.6,80.7,81,81,80.3,81c-0.2,0-0.4,0-0.6-0.1l-16.3-4.4l-0.7-0.2l-0.6,0.3C58.3,78.2,54.2,79,50,79   s-8.3-0.8-12.1-2.4l-0.6-0.3l-0.7,0.2l-16.3,4.4C20.1,81,19.9,81,19.7,81c-0.7,0-1.3-0.3-1.7-0.9c-0.2-0.3-0.6-1-0.4-1.9l4.2-15.7   l0.2-0.7l-0.3-0.7C19.9,57.3,19,53.2,19,49C19,32.5,32.9,19,50,19 M50,63.8c6.6,0,12-5.3,12-11.8s-5.4-11.8-12-11.8S38,45.5,38,52   S43.4,63.8,50,63.8 M50,17c-18.2,0-33,14.3-33,32c0,4.6,1,9,2.8,13l-4.2,15.7C14.9,80.4,17,83,19.7,83c0.4,0,0.7,0,1.1-0.1   l16.3-4.4c4,1.6,8.3,2.5,12.9,2.5s8.9-0.9,12.9-2.5l16.3,4.4C79.6,83,80,83,80.3,83c2.7,0,4.8-2.6,4.1-5.3L80.2,62   C82,58,83,53.6,83,49C83,31.3,68.2,17,50,17L50,17z M50,61.8c-5.5,0-10-4.4-10-9.8c0-5.4,4.5-9.8,10-9.8s10,4.4,10,9.8   C60,57.4,55.5,61.8,50,61.8L50,61.8z" style="fill:#6262A5;"/></g></svg>