<svg id="flower" enable-background="new 0 0 300 300" height="512" viewBox="0 0 300 300" width="512" xmlns="http://www.w3.org/2000/svg" xmlns:xlink="http://www.w3.org/1999/xlink"><linearGradient id="SVGID_1_" gradientUnits="userSpaceOnUse" x1="64.289" x2="239.15" y1="223.605" y2="48.744"><stop offset="0" stop-color="#107eff"/><stop offset="1" stop-color="#8f16ff"/></linearGradient><g><path d="m74 62c8.824 0 16-7.178 16-16s-7.176-16-16-16-16 7.178-16 16 7.176 16 16 16zm0-24c4.41 0 8 3.588 8 8s-3.59 8-8 8-8-3.588-8-8 3.59-8 8-8zm117.47 26c0-2.502 2.028-4.53 4.53-4.53s4.53 2.028 4.53 4.53c0 2.501-2.028 4.529-4.53 4.529s-4.53-2.028-4.53-4.529zm36-16c0-2.502 2.028-4.53 4.53-4.53s4.53 2.028 4.53 4.53c0 2.501-2.028 4.529-4.53 4.529s-4.53-2.028-4.53-4.529zm9.06 192c0 2.501-2.028 4.529-4.53 4.529s-4.53-2.028-4.53-4.529c0-2.502 2.028-4.53 4.53-4.53s4.53 2.028 4.53 4.53zm-90.225-96.469c.617 1.494 2.078 2.469 3.695 2.469s3.078-.975 3.695-2.469l21.539-51.998c.406-.98.406-2.082 0-3.062l-21.539-52.002c-.617-1.494-2.078-2.469-3.695-2.469s-3.078.975-3.695 2.469l-21.539 52.002c-.406.98-.406 2.082 0 3.062zm3.695-95.078 17.211 41.549-17.211 41.545-17.211-41.545zm3.695 112.016c-.617-1.494-2.078-2.469-3.695-2.469s-3.078.975-3.695 2.469l-21.539 52.002c-.406.98-.406 2.082 0 3.062l21.539 51.998c.617 1.494 2.078 2.469 3.695 2.469s3.078-.975 3.695-2.469l21.539-51.998c.406-.98.406-2.082 0-3.062zm-3.695 95.078-17.211-41.545 17.211-41.549 17.211 41.549zm-5.852-98.783c-.617-1.494-2.074-2.471-3.691-2.473l-56.281-.059h-.004c-1.059 0-2.074.42-2.824 1.168l-39.84 39.76c-1.148 1.145-1.492 2.863-.871 4.359.617 1.494 2.074 2.471 3.691 2.473l56.285.057h.004c1.059 0 2.074-.42 2.824-1.168l39.836-39.758c1.149-1.144 1.493-2.863.871-4.359zm-45.183 37.283-44.973-.045 31.832-31.768 44.969.047zm100.422-92.098c-1.059 0-2.074.42-2.824 1.168l-39.84 39.76c-1.148 1.145-1.492 2.863-.871 4.359.617 1.494 2.074 2.471 3.691 2.473l56.285.057h.004c1.059 0 2.074-.42 2.824-1.168l39.836-39.758c1.148-1.145 1.492-2.863.871-4.359-.617-1.494-2.074-2.471-3.691-2.473l-56.281-.059zm46.621 8.049-31.828 31.766-44.973-.045 31.832-31.768zm-27.356 45.402c-.75-.748-1.766-1.168-2.824-1.168h-.004l-56.281.059c-1.617.002-3.074.979-3.691 2.473-.621 1.496-.277 3.215.871 4.359l39.836 39.758c.75.748 1.766 1.168 2.824 1.168h.004l56.285-.057c1.617-.002 3.074-.979 3.691-2.473.621-1.496.277-3.215-.871-4.359zm-137.308-6.802c.75.748 1.766 1.168 2.824 1.168h.004l56.285-.057c1.617-.002 3.074-.979 3.691-2.473.621-1.496.277-3.215-.871-4.359l-39.84-39.76c-.75-.748-1.766-1.168-2.824-1.168h-.004l-56.281.059c-1.617.002-3.074.979-3.691 2.473-.621 1.496-.277 3.215.871 4.359z" fill="url(#SVGID_1_)"/></g></svg>